# xmcd
# 
# Track frame offsets:
#     150
#     17892
#     29560
#     47102
# 
# Disc length: 871
# 
# Revision: 0
# Processed by: cddbd v1.5.2PL0 Copyright (c) Steve Scherf et al.
# Submitted via: fre:ac v1.0.17
# 
DISCID=2f036504
DTITLE=Travis - Side
DYEAR=2001
DGENRE=
TTITLE0=Side
TTITLE1=Ancient Train
TTITLE2=Driftwood (Live At Barrowlands)
TTITLE3=All The Young Dudes (Live At Barrowlands)
EXTD=
EXTT0=
EXTT1=
EXTT2=
EXTT3=
PLAYORDER=
